<mxfile host="app.diagrams.net" modified="2021-01-07T06:30:51.454Z" agent="5.0 (Windows NT 6.3; Win64; x64) AppleWebKit/537.36 (KHTML, like Gecko) Chrome/86.0.4240.193 Safari/537.36" etag="j1apM1UL2j35Z8kBKey2" version="14.1.8" type="github">
  <diagram id="R2lEEEUBdFMjLlhIrx00" name="Page-1">
    <mxGraphModel dx="984" dy="684" grid="1" gridSize="10" guides="1" tooltips="1" connect="1" arrows="1" fold="1" page="1" pageScale="1" pageWidth="850" pageHeight="1100" math="0" shadow="0" extFonts="Permanent Marker^https://fonts.googleapis.com/css?family=Permanent+Marker">
      <root>
        <mxCell id="0" />
        <mxCell id="1" parent="0" />
        <mxCell id="tR4LGc_wkCAK7GT1lzOk-3" value="监测站点" style="whiteSpace=wrap;html=1;align=center;" parent="1" vertex="1">
          <mxGeometry x="160" y="520" width="100" height="40" as="geometry" />
        </mxCell>
        <mxCell id="tR4LGc_wkCAK7GT1lzOk-4" value="气象数据" style="whiteSpace=wrap;html=1;align=center;" parent="1" vertex="1">
          <mxGeometry x="375" y="460" width="100" height="40" as="geometry" />
        </mxCell>
        <mxCell id="tR4LGc_wkCAK7GT1lzOk-5" value="水雨情数据" style="whiteSpace=wrap;html=1;align=center;" parent="1" vertex="1">
          <mxGeometry x="375" y="520" width="100" height="40" as="geometry" />
        </mxCell>
        <mxCell id="tR4LGc_wkCAK7GT1lzOk-6" value="监测站点指标" style="whiteSpace=wrap;html=1;align=center;" parent="1" vertex="1">
          <mxGeometry x="160" y="430" width="100" height="40" as="geometry" />
        </mxCell>
        <mxCell id="tR4LGc_wkCAK7GT1lzOk-8" value="" style="fontSize=12;html=1;endArrow=ERmandOne;startArrow=ERmandOne;entryX=0.5;entryY=0;entryDx=0;entryDy=0;exitX=0.5;exitY=1;exitDx=0;exitDy=0;" parent="1" source="tR4LGc_wkCAK7GT1lzOk-6" target="tR4LGc_wkCAK7GT1lzOk-3" edge="1">
          <mxGeometry width="100" height="100" relative="1" as="geometry">
            <mxPoint x="110" y="670" as="sourcePoint" />
            <mxPoint x="140" y="630" as="targetPoint" />
          </mxGeometry>
        </mxCell>
        <mxCell id="tR4LGc_wkCAK7GT1lzOk-10" value="" style="edgeStyle=entityRelationEdgeStyle;fontSize=12;html=1;endArrow=ERoneToMany;entryX=0;entryY=0.5;entryDx=0;entryDy=0;" parent="1" source="tR4LGc_wkCAK7GT1lzOk-3" target="tR4LGc_wkCAK7GT1lzOk-4" edge="1">
          <mxGeometry width="100" height="100" relative="1" as="geometry">
            <mxPoint x="320" y="770" as="sourcePoint" />
            <mxPoint x="420" y="670" as="targetPoint" />
          </mxGeometry>
        </mxCell>
        <mxCell id="tR4LGc_wkCAK7GT1lzOk-11" value="" style="edgeStyle=entityRelationEdgeStyle;fontSize=12;html=1;endArrow=ERoneToMany;exitX=1;exitY=0.5;exitDx=0;exitDy=0;entryX=0;entryY=0.5;entryDx=0;entryDy=0;" parent="1" source="tR4LGc_wkCAK7GT1lzOk-3" target="tR4LGc_wkCAK7GT1lzOk-5" edge="1">
          <mxGeometry width="100" height="100" relative="1" as="geometry">
            <mxPoint x="350" y="770" as="sourcePoint" />
            <mxPoint x="450" y="670" as="targetPoint" />
          </mxGeometry>
        </mxCell>
        <mxCell id="tR4LGc_wkCAK7GT1lzOk-12" value="汛情预警" style="whiteSpace=wrap;html=1;align=center;" parent="1" vertex="1">
          <mxGeometry x="375" y="590" width="100" height="40" as="geometry" />
        </mxCell>
        <mxCell id="tR4LGc_wkCAK7GT1lzOk-13" value="" style="edgeStyle=entityRelationEdgeStyle;fontSize=12;html=1;endArrow=ERoneToMany;exitX=1;exitY=0.5;exitDx=0;exitDy=0;" parent="1" source="tR4LGc_wkCAK7GT1lzOk-3" target="tR4LGc_wkCAK7GT1lzOk-12" edge="1">
          <mxGeometry width="100" height="100" relative="1" as="geometry">
            <mxPoint x="380" y="790" as="sourcePoint" />
            <mxPoint x="480" y="690" as="targetPoint" />
          </mxGeometry>
        </mxCell>
        <mxCell id="tR4LGc_wkCAK7GT1lzOk-14" value="监测站点状态" style="whiteSpace=wrap;html=1;align=center;" parent="1" vertex="1">
          <mxGeometry x="160" y="610" width="100" height="40" as="geometry" />
        </mxCell>
        <mxCell id="tR4LGc_wkCAK7GT1lzOk-15" value="" style="edgeStyle=orthogonalEdgeStyle;fontSize=12;html=1;endArrow=ERoneToMany;exitX=0.5;exitY=1;exitDx=0;exitDy=0;entryX=0.5;entryY=0;entryDx=0;entryDy=0;" parent="1" source="tR4LGc_wkCAK7GT1lzOk-3" target="tR4LGc_wkCAK7GT1lzOk-14" edge="1">
          <mxGeometry width="100" height="100" relative="1" as="geometry">
            <mxPoint x="250" y="820" as="sourcePoint" />
            <mxPoint x="350" y="720" as="targetPoint" />
          </mxGeometry>
        </mxCell>
        <mxCell id="tR4LGc_wkCAK7GT1lzOk-17" value="取水口临界事件" style="whiteSpace=wrap;html=1;align=center;" parent="1" vertex="1">
          <mxGeometry x="375" y="710" width="100" height="40" as="geometry" />
        </mxCell>
        <mxCell id="tR4LGc_wkCAK7GT1lzOk-20" value="取水口水位监测调度" style="whiteSpace=wrap;html=1;align=center;" parent="1" vertex="1">
          <mxGeometry x="160" y="710" width="100" height="40" as="geometry" />
        </mxCell>
        <mxCell id="tR4LGc_wkCAK7GT1lzOk-21" value="" style="edgeStyle=entityRelationEdgeStyle;fontSize=12;html=1;endArrow=ERzeroToMany;endFill=1;" parent="1" source="tR4LGc_wkCAK7GT1lzOk-20" edge="1">
          <mxGeometry width="100" height="100" relative="1" as="geometry">
            <mxPoint x="230" y="920" as="sourcePoint" />
            <mxPoint x="380" y="730" as="targetPoint" />
          </mxGeometry>
        </mxCell>
        <mxCell id="tR4LGc_wkCAK7GT1lzOk-22" value="取水口水位预测" style="whiteSpace=wrap;html=1;align=center;" parent="1" vertex="1">
          <mxGeometry x="375" y="770" width="100" height="40" as="geometry" />
        </mxCell>
        <mxCell id="tR4LGc_wkCAK7GT1lzOk-23" value="取水口水位告警" style="whiteSpace=wrap;html=1;align=center;" parent="1" vertex="1">
          <mxGeometry x="375" y="830" width="100" height="40" as="geometry" />
        </mxCell>
        <mxCell id="tR4LGc_wkCAK7GT1lzOk-24" value="取水口预警规则" style="whiteSpace=wrap;html=1;align=center;" parent="1" vertex="1">
          <mxGeometry x="160" y="790" width="100" height="40" as="geometry" />
        </mxCell>
        <mxCell id="nlmW128QRvMNPVGI3ugg-1" value="" style="edgeStyle=orthogonalEdgeStyle;fontSize=12;html=1;endArrow=ERmandOne;startArrow=ERmandOne;entryX=0.5;entryY=1;entryDx=0;entryDy=0;" edge="1" parent="1" target="tR4LGc_wkCAK7GT1lzOk-20">
          <mxGeometry width="100" height="100" relative="1" as="geometry">
            <mxPoint x="210" y="790" as="sourcePoint" />
            <mxPoint x="360" y="860" as="targetPoint" />
          </mxGeometry>
        </mxCell>
      </root>
    </mxGraphModel>
  </diagram>
</mxfile>
